HIERARCHY
ROOT Root
{
	OFFSET 	 0.0	 0.0	 0.0
	CHANNELS 6 Xposition Yposition Zposition Xrotation Yrotation Zrotation 
	JOINT L_Femur
	{
		OFFSET 	 5.02377	 0.0	 0.0
		CHANNELS 3 Xrotation Yrotation Zrotation 
		JOINT L_Tibia
		{
			OFFSET 	 0.0	 -18.77975	 0.0
			CHANNELS 3 Xrotation Yrotation Zrotation 
			JOINT L_Foot
			{
				OFFSET 	 0.0	 -17.6338	 0.0
				CHANNELS 3 Xrotation Yrotation Zrotation 
				JOINT L_Toe
				{
					OFFSET 	 0.0	 -1.71554	 6.40249
					CHANNELS 3 Xrotation Yrotation Zrotation 
					End Site
					{
						OFFSET 	 0.0	 0.0	 2.95275
					}
				}
			}
		}
	}
	JOINT R_Femur
	{
		OFFSET 	 -5.02377	 0.0	 0.0
		CHANNELS 3 Xrotation Yrotation Zrotation 
		JOINT R_Tibia
		{
			OFFSET 	 0.0	 -18.77975	 0.0
			CHANNELS 3 Xrotation Yrotation Zrotation 
			JOINT R_Foot
			{
				OFFSET 	 0.0	 -17.6338	 0.0
				CHANNELS 3 Xrotation Yrotation Zrotation 
				JOINT R_Toe
				{
					OFFSET 	 0.0	 -1.71554	 6.40249
					CHANNELS 3 Xrotation Yrotation Zrotation 
					End Site
					{
						OFFSET 	 0.0	 0.0	 2.95275
					}
				}
			}
		}
	}
	JOINT LowerBack
	{
		OFFSET 	 0.0	 0.03937	 0.0
		CHANNELS 3 Xrotation Yrotation Zrotation 
		JOINT Thorax
		{
			OFFSET 	 0.0	 12.94332	 0.0
			CHANNELS 3 Xrotation Yrotation Zrotation 
			JOINT Neck
			{
				OFFSET 	 0.0	 6.49419	 0.0
				CHANNELS 3 Xrotation Yrotation Zrotation 
				JOINT Head
				{
					OFFSET 	 0.0	 7.97171	 0.0
					CHANNELS 3 Xrotation Yrotation Zrotation 
					End Site
					{
						OFFSET 	 0.0	 4.52755	 0.0
					}
				}
			}
			JOINT L_Collar
			{
				OFFSET 	 0.0	 6.49419	 0.0
				CHANNELS 3 Xrotation Yrotation Zrotation 
				JOINT L_Humerus
				{
					OFFSET 	 8.1957	 -3e-05	 0.0
					CHANNELS 3 Xrotation Yrotation Zrotation 
					JOINT L_Elbow
					{
						OFFSET 	 11.93308	 -4e-05	 0.0
						CHANNELS 3 Xrotation Yrotation Zrotation 
						JOINT L_Wrist
						{
							OFFSET 	 10.02508	 -4e-05	 0.0
							CHANNELS 3 Xrotation Yrotation Zrotation 
							JOINT L_Thumb
							{
								OFFSET 	 0.0	 0.0	 0.0
								CHANNELS 3 Xrotation Yrotation Zrotation 
								End Site
								{
									OFFSET 	 0.0	 0.0	 3.937
								}
							}
							End Site
							{
								OFFSET 	 3.937	 -1e-05	 0.0
							}
						}
					}
				}
			}
			JOINT R_Collar
			{
				OFFSET 	 0.0	 6.49419	 0.0
				CHANNELS 3 Xrotation Yrotation Zrotation 
				JOINT R_Humerus
				{
					OFFSET 	 -8.1957	 -3e-05	 0.0
					CHANNELS 3 Xrotation Yrotation Zrotation 
					JOINT R_Elbow
					{
						OFFSET 	 -11.93308	 -4e-05	 0.0
						CHANNELS 3 Xrotation Yrotation Zrotation 
						JOINT R_Wrist
						{
							OFFSET 	 -10.02508	 -4e-05	 0.0
							CHANNELS 3 Xrotation Yrotation Zrotation 
							JOINT R_Thumb
							{
								OFFSET 	 0.0	 0.0	 0.0
								CHANNELS 3 Xrotation Yrotation Zrotation 
								End Site
								{
									OFFSET 	 0.0	 0.0	 3.937
								}
							}
							End Site
							{
								OFFSET 	 -5.41338	 -2e-05	 0.0
							}
						}
					}
				}
			}
		}
	}
}
MOTION
Frames: 21
Frame Time: 0.008333
-0.134959440151	34.0119685249	-0.156380980869	166.540065332	5.96898914952	-178.280270935	-40.924	4.0676	-1.0776	22.5294	-0.0	0.0	-11.3149	10.3045	-13.3153	-9.0725	0.0	0.0	5.4914	-7.0086	-0.4394	11.6756	0.0	0.0	-17.1591	3.7596	28.2194	-1.3628	-0.0	0.0	-14.8489	7.1852	4.9577	30.7282	3.1818	-5.2161	-3.8736	-2.957	-1.6973	-12.5911	-5.4658	-0.0196	-13.0384	-0.3162	6.8901	13.8378	-12.9508	-86.8896	-0.0	-12.3939	-0.0	6.5407	11.8161	3.5509	-0.0	0.0	-0.0	-18.3226	2.7959	-5.1036	-3.5535	16.2052	68.9716	-0.0002	48.4484	0.0001	-14.0084	-9.6858	-13.1204	-0.0	0.0	-0.0	
-0.386227265451	34.4398953705	-0.885628307816	166.143753995	6.10204423941	-178.096370232	-40.5731	3.1083	-1.6443	23.45	-0.0	0.0	-10.4704	10.4107	-12.3913	-9.305	0.0	0.0	4.9225	-7.1911	-1.1493	14.1923	-0.0	-0.0	-16.2603	4.4533	28.1348	-2.718	-0.0	-0.0	-15.2003	7.3107	4.7467	30.6397	3.2672	-5.4488	-3.5799	-2.8284	-1.7365	-12.6184	-5.3266	0.2043	-12.7191	-0.3701	6.7709	13.7285	-13.4818	-86.7088	-0.0	-13.0258	-0.0	5.1119	11.6292	4.1958	-0.0	0.0	-0.0	-18.2764	2.8152	-5.226	-3.0814	16.2896	69.3998	-0.0002	48.6351	0.0001	-13.775	-9.4911	-13.3996	-0.0	0.0	-0.0	
-0.497362037412	34.6661024582	-1.27144283565	165.959321428	6.13239402716	-177.997525383	-40.3395	2.536	-1.9771	23.8417	-0.0	0.0	-9.9019	10.7131	-12.2761	-9.6515	-0.0	0.0	4.6066	-7.1615	-1.5044	15.5501	0.0	0.0	-15.7157	4.6757	27.9589	-3.3799	-0.0	-0.0	-15.3764	7.3437	4.6205	30.5698	3.2938	-5.5487	-3.4305	-2.7409	-1.7584	-12.5428	-5.2517	0.3567	-12.6207	-0.425	6.7068	13.7077	-13.699	-86.6086	-0.0	-13.3501	-0.0	4.3038	11.3522	4.5428	-0.0	0.0	-0.0	-18.2401	2.8081	-5.2811	-2.8053	16.3318	69.6474	-0.0002	48.6724	0.0001	-13.57	-9.4719	-13.4995	-0.0	0.0	-0.0	
-0.600322348465	34.8845481129	-1.67255679762	165.792309089	6.1176306006	-177.910843524	-40.0753	1.8279	-2.3464	24.2107	-0.0	0.0	-9.3697	11.183	-12.4651	-9.9686	0.0	0.0	4.2753	-7.0538	-1.8362	16.9801	0.0	-0.0	-15.0742	4.7771	27.802	-4.0885	-0.0	-0.0	-15.5481	7.3507	4.4861	30.4893	3.3045	-5.6319	-3.2851	-2.6413	-1.7713	-12.4144	-5.1733	0.5141	-12.5805	-0.4923	6.6465	13.7058	-13.8709	-86.5056	-0.0001	-13.6626	-0.0	3.4464	10.9426	4.8749	-0.0	0.0	-0.0	-18.1988	2.7876	-5.3287	-2.5002	16.3782	69.9114	-0.0002	48.6771	0.0001	-13.3047	-9.5126	-13.554	-0.0	0.0	-0.0	
-0.695312562102	35.0859300262	-2.08653186281	165.656065426	6.05299479857	-177.840151344	-39.7605	1.1324	-2.7203	24.5479	0.0	-0.0	-8.9457	11.6679	-13.0125	-10.2426	-0.0	0.0	3.9432	-6.8923	-2.1359	18.4728	0.0	0.0	-14.3146	4.7506	27.7468	-4.8712	0.0	0.0	-15.7113	7.3233	4.345	30.4104	3.2922	-5.6936	-3.1543	-2.5307	-1.7761	-12.2207	-5.0922	0.674	-12.586	-0.5644	6.5837	13.7016	-13.9942	-86.3922	-0.0001	-13.9535	-0.0	2.7731	10.5064	5.1525	-0.0	0.0	-0.0	-18.1557	2.7495	-5.3664	-2.171	16.4313	70.1899	-0.0002	48.6463	0.0001	-12.9954	-9.5978	-13.5613	-0.0	0.0	-0.0	
-0.781367319707	35.2740039761	-2.50990822089	165.552827488	5.93547447798	-177.789759727	-39.3902	0.5549	-3.0747	24.8489	0.0	0.0	-8.5978	12.043	-13.7502	-10.4463	-0.0	-0.0	3.6005	-6.6823	-2.3949	20.0442	0.0	0.0	-13.3951	4.5961	27.7982	-5.8535	0.0	-0.0	-15.8668	7.2578	4.2011	30.3474	3.2485	-5.7377	-3.0542	-2.4068	-1.7721	-11.9555	-5.0123	0.8401	-12.6214	-0.6252	6.5179	13.6672	-14.0906	-86.258	-0.0001	-14.2192	-0.0	2.3857	10.1418	5.3432	-0.0	0.0	-0.0	-18.1246	2.6966	-5.3838	-1.8165	16.4872	70.4786	-0.0002	48.5828	0.0001	-12.6706	-9.7013	-13.5276	-0.0	0.0	-0.0	
-0.855122048793	35.455555014	-2.94013738686	165.486208638	5.76524003831	-177.762565867	-38.9785	-0.0054	-3.4283	25.1315	-0.0	0.0	-8.2707	12.3996	-14.4467	-10.5419	-0.0	-0.0	3.2359	-6.395	-2.6093	21.7168	-0.0	0.0	-12.3474	4.3358	27.8718	-7.0171	-0.0	-0.0	-16.0015	7.1587	4.0542	30.2922	3.1762	-5.7646	-2.9954	-2.271	-1.7614	-11.5989	-4.9358	1.012	-12.6819	-0.6687	6.4512	13.5991	-14.1847	-86.1012	-0.0001	-14.4629	-0.0	2.1146	9.8455	5.4439	-0.0	0.0	-0.0	-18.1091	2.6299	-5.3942	-1.4364	16.558	70.7889	-0.0002	48.4707	0.0001	-12.3625	-9.7772	-13.4655	-0.0	0.0	-0.0	
-0.91666490587	35.6268159184	-3.37361813554	165.478678883	5.55504330741	-177.741147244	-38.5027	-0.5177	-3.7857	25.3936	0.0	-0.0	-7.9858	12.7219	-15.0413	-10.527	-0.0	-0.0	2.8558	-6.0066	-2.7981	23.5113	0.0	-0.0	-11.2706	3.9774	27.984	-8.1094	-0.0	-0.0	-16.0906	7.0357	3.8935	30.2077	3.0773	-5.784	-2.9116	-2.1303	-1.7341	-11.1715	-4.8509	1.1833	-12.6933	-0.7352	6.393	13.4765	-14.2453	-85.9358	-0.0001	-14.7036	-0.0	1.8614	9.598	5.4629	-0.0	0.0	-0.0	-18.0598	2.5874	-5.3825	-1.0372	16.6048	71.1095	-0.0002	48.3166	0.0001	-12.1038	-9.8461	-13.3831	-0.0	0.0	-0.0	
-0.967434188053	35.7848366997	-3.80948375904	165.53561282	5.3162248613	-177.714784952	-37.9596	-0.9558	-4.1434	25.6475	-0.0	0.0	-7.77	12.9699	-15.4891	-10.395	0.0	0.0	2.4464	-5.5812	-2.9826	25.4332	0.0	-0.0	-10.2344	3.5508	28.3572	-8.8311	-0.0	-0.0	-16.1211	6.8914	3.7049	30.1194	2.9676	-5.7857	-2.8514	-1.981	-1.701	-10.66	-4.7652	1.3496	-12.7249	-0.8062	6.3419	13.3339	-14.32	-85.7668	-0.0001	-14.9475	-0.0	1.609	9.3853	5.4205	-0.0	0.0	-0.0	-18.0073	2.5431	-5.3569	-0.6237	16.6395	71.4385	-0.0002	48.1334	0.0001	-11.9183	-9.9419	-13.2855	-0.0	0.0	-0.0	
-1.03818040211	36.0527580025	-4.67757759712	165.751994237	4.79044745928	-177.688249131	-36.7655	-1.5497	-4.7742	26.1508	0.0	-0.0	-7.6677	13.1477	-15.8363	-9.8014	0.0	-0.0	1.3305	-4.588	-3.2834	29.8723	-0.0	0.0	-8.1153	2.6608	29.3606	-9.5493	-0.0	0.0	-16.0927	6.5757	3.3206	29.9395	2.7265	-5.7639	-2.7688	-1.6611	-1.6231	-9.4064	-4.5936	1.6947	-13.0548	-0.9342	6.2878	13.1329	-14.6541	-85.4247	-0.0001	-15.4149	-0.0	1.2481	9.0995	5.2419	-0.0	0.0	-0.0	-17.9027	2.492	-5.2868	0.2207	16.5594	72.1833	-0.0002	47.6631	0.0001	-11.7261	-10.1345	-13.0388	-0.0	0.0	-0.0	
-1.06351892657	36.1588845631	-5.09517386942	165.853101627	4.549515918	-177.691686102	-36.1647	-1.6651	-5.0122	26.3702	0.0	-0.0	-7.8149	13.0593	-15.6956	-9.3834	-0.0	-0.0	0.5184	-4.0836	-3.4013	32.4254	0.0	-0.0	-6.8786	2.3337	29.66	-9.8539	0.0	0.0	-16.071	6.4263	3.1559	29.831	2.6079	-5.7503	-2.7215	-1.4966	-1.6025	-8.7325	-4.5037	1.9042	-13.2852	-1.0251	6.2655	13.0387	-14.891	-85.233	-0.0001	-15.6789	-0.0	1.2224	9.06	5.1281	-0.0	0.0	-0.0	-17.8338	2.4517	-5.2501	0.6089	16.4682	72.6075	-0.0002	47.3584	0.0001	-11.7336	-10.2188	-12.9034	-0.0	0.0	-0.0	
-1.08337370362	36.2421718914	-5.50072246557	165.937636195	4.31191039267	-177.698115268	-35.5625	-1.6382	-5.204	26.5541	0.0	-0.0	-8.1257	12.8359	-15.4245	-8.9849	-0.0	0.0	-0.4423	-3.593	-3.5097	35.1222	-0.0	0.0	-5.4739	2.0431	29.9441	-10.037	0.0	0.0	-16.052	6.2759	2.9993	29.7064	2.495	-5.7254	-2.6667	-1.3264	-1.6006	-8.0459	-4.4036	2.1183	-13.5312	-1.121	6.2337	12.9229	-15.175	-85.0247	-0.0001	-15.9681	-0.0	1.3232	9.1057	5.0285	-0.0	0.0	-0.0	-17.7451	2.4003	-5.2278	0.9653	16.3679	73.0608	-0.0002	47.0046	0.0001	-11.9547	-10.2781	-12.8542	-0.0	0.0	-0.0	
-1.10059412177	36.3034620789	-5.89831286421	166.008553013	4.05733366333	-177.705343919	-34.955	-1.5214	-5.3725	26.7025	-0.0	0.0	-8.5891	12.5106	-15.1031	-8.6213	-0.0	-0.0	-1.536	-3.1544	-3.618	37.9255	-0.0	-0.0	-3.9197	1.7968	30.1619	-10.0564	0.0	0.0	-16.0394	6.115	2.8471	29.5667	2.3768	-5.6907	-2.5963	-1.1518	-1.6021	-7.3545	-4.2885	2.3136	-13.7803	-1.222	6.199	12.7816	-15.4878	-84.8051	-0.0001	-16.2838	-0.0	1.5129	9.2224	4.9591	-0.0	0.0	-0.0	-17.4939	2.3182	-5.2344	1.1397	16.2815	73.5499	-0.0002	46.5808	0.0001	-12.3868	-10.2966	-12.904	-0.0	0.0	-0.0	
-1.11763094543	36.349209391	-6.28977328625	166.066421984	3.79032448459	-177.70801387	-34.3123	-1.2979	-5.5198	26.7662	-0.0	-0.0	-9.155	12.0838	-14.7728	-8.2005	-0.0	0.0	-2.7253	-2.6879	-3.7177	40.7648	0.0	-0.0	-2.2881	1.5517	30.4162	-9.7069	-0.0	-0.0	-16.0377	5.9416	2.6906	29.4336	2.2534	-5.6475	-2.5284	-0.9695	-1.5895	-6.6568	-4.1589	2.4657	-14.0404	-1.3264	6.167	12.6097	-15.8187	-84.5794	-0.0001	-16.6199	-0.0	1.7485	9.3812	4.9152	-0.0	0.0	-0.0	-17.3443	2.2679	-5.23	1.4298	16.1688	74.0318	-0.0002	46.1478	0.0001	-12.8367	-10.3026	-12.9781	-0.0	0.0	-0.0	
-1.13539810298	36.3863443512	-6.67432528874	166.122515343	3.51908929651	-177.726709898	-33.6484	-1.0795	-5.647	26.772	-0.0	0.0	-9.7652	11.6421	-14.465	-7.7159	-0.0	0.0	-3.9908	-2.2152	-3.7964	43.6217	0.0	-0.0	-0.5733	1.2847	31.0224	-8.9158	0.0	-0.0	-16.0488	5.7594	2.555	29.322	2.1197	-5.5985	-2.4645	-0.784	-1.5663	-5.9538	-4.0202	2.5765	-14.2972	-1.4307	6.1426	12.389	-16.1651	-84.3469	-0.0001	-16.9754	-0.0	2.0253	9.5732	4.8881	-0.0	0.0	-0.0	-17.2096	2.2291	-5.2213	1.7323	16.0513	74.5111	-0.0002	45.6912	0.0001	-13.1024	-10.2897	-12.9883	-0.0	0.0	-0.0	
-1.14778025804	36.4240091228	-7.05311523257	166.187905744	3.23493519871	-177.762169281	-32.9489	-0.9062	-5.7656	26.7009	-0.0	0.0	-10.339	11.2809	-14.2131	-7.286	-0.0	-0.0	-5.3141	-1.8013	-3.8657	46.4881	0.0	-0.0	1.2109	0.9026	32.1078	-7.4931	-0.0	0.0	-16.0725	5.568	2.442	29.2504	1.9726	-5.5464	-2.404	-0.5961	-1.5475	-5.2682	-3.8751	2.6744	-14.5564	-1.5374	6.1201	12.1243	-16.5049	-84.1018	-0.0001	-17.3644	-0.0	2.3461	9.8204	4.8644	-0.0	0.0	-0.0	-17.0952	2.2028	-5.2026	2.0501	15.934	74.9771	-0.0002	45.2198	0.0001	-13.1954	-10.2817	-12.9408	-0.0	0.0	-0.0	
-1.16296172203	36.4669443878	-7.42475771072	166.263348471	2.94917668829	-177.80077613	-32.2066	-0.7741	-5.8867	26.5328	0.0	-0.0	-10.8251	10.9564	-13.986	-6.7534	0.0	-0.0	-6.6985	-1.4847	-3.9415	49.3543	-0.0	0.0	2.9623	0.3184	33.3441	-5.3848	-0.0	-0.0	-16.1029	5.3706	2.3428	29.2129	1.8148	-5.495	-2.3404	-0.4005	-1.5375	-4.6268	-3.7172	2.7745	-14.8156	-1.6366	6.0911	11.8156	-16.8309	-83.8363	-0.0001	-17.7949	-0.0	2.7061	10.1478	4.8383	-0.0	0.0	-0.0	-17.0116	2.1698	-5.1694	2.3781	15.8572	75.4184	-0.0002	44.713	0.0001	-13.2275	-10.3233	-12.8812	-0.0	0.0	-0.0	
-1.18123392354	36.5189396675	-7.78798269017	166.33972295	2.66210375328	-177.84789379	-31.4444	-0.6901	-6.005	26.2863	-0.0	0.0	-11.1879	10.6632	-13.7693	-6.3709	0.0	0.0	-8.1436	-1.2679	-4.0187	52.1755	0.0	-0.0	4.6125	-0.3204	34.3663	-3.3904	0.0	0.0	-16.1388	5.1665	2.2567	29.1914	1.6495	-5.4389	-2.2651	-0.1953	-1.5339	-4.0475	-3.5424	2.8698	-15.0683	-1.7186	6.0569	11.4635	-17.1409	-83.5534	-0.0001	-18.2703	-0.0	2.9481	10.4423	4.8695	-0.0	0.0	-0.0	-16.9563	2.115	-5.1256	2.7049	15.8501	75.8323	-0.0002	44.1567	0.0001	-13.1827	-10.4471	-12.7916	-0.0	0.0	-0.0	
-1.20394443035	36.5756789307	-8.14163755505	166.409013953	2.37788723394	-177.911005695	-30.6844	-0.6425	-6.1097	25.991	0.0	-0.0	-11.4688	10.3792	-13.5591	-6.2759	0.0	0.0	-9.6235	-1.1315	-4.091	54.889	-0.0	-0.0	6.0325	-0.9333	35.0116	-2.0462	0.0	-0.0	-16.1786	4.9519	2.1871	29.168	1.4768	-5.3699	-2.1758	0.0163	-1.5421	-3.5166	-3.352	2.9651	-15.3086	-1.7777	6.019	11.0733	-17.4293	-83.2567	-0.0001	-18.7947	-0.0	2.9425	10.619	5.0027	-0.0	0.0	-0.0	-16.9128	2.0433	-5.0828	3.0199	15.8902	76.2336	-0.0002	43.5618	0.0001	-13.0646	-10.6458	-12.6786	-0.0	0.0	-0.0	
-1.22938339981	36.6309864178	-8.48595313476	166.472032559	2.09313602196	-177.98392883	-29.929	-0.6264	-6.2061	25.6574	0.0	0.0	-11.7203	10.1117	-13.3725	-6.194	0.0	-0.0	-11.126	-1.0685	-4.1658	57.4724	0.0	-0.0	7.1426	-1.5052	35.1489	-1.3892	0.0	0.0	-16.2168	4.7243	2.1265	29.1326	1.2975	-5.2855	-2.0652	0.2321	-1.5677	-3.0274	-3.1487	3.0649	-15.5298	-1.8091	5.9724	10.6471	-17.6853	-82.9452	-0.0001	-19.3685	-0.0	2.7613	10.7291	5.2045	-0.0	0.0	-0.0	-16.8682	1.9662	-5.0492	3.3179	15.9455	76.6343	-0.0002	42.9419	0.0001	-12.8687	-10.9129	-12.5454	-0.0	0.0	-0.0	
-1.25722500561	36.6843629799	-8.82236489152	166.545203716	1.80691975805	-178.055461635	-29.1562	-0.6326	-6.3044	25.2796	0.0	0.0	-11.9436	9.8603	-13.2062	-6.1198	-0.0	0.0	-12.623	-1.0646	-4.2528	59.9147	0.0	0.0	7.8078	-2.0953	34.7912	-0.772	0.0	0.0	-16.2384	4.4855	2.0621	29.0861	1.116	-5.186	-1.9348	0.4491	-1.6113	-2.5753	-2.9345	3.1717	-15.737	-1.8204	5.9183	10.2005	-17.9067	-82.6216	-0.0001	-19.99	-0.0	2.458	10.8049	5.4549	-0.0	0.0	-0.0	-16.8082	1.8903	-5.0268	3.5987	16.0119	77.0307	-0.0002	42.3159	0.0001	-12.6189	-11.2379	-12.4153	-0.0	0.0	-0.0	
